<svg width="24" height="24" viewBox="0 0 24 24" fill="none" xmlns="http://www.w3.org/2000/svg">
<path d="M12 3C11.0111 3 10.0444 3.29324 9.22215 3.84265C8.3999 4.39206 7.75904 5.17295 7.3806 6.08658C7.00216 7.00021 6.90315 8.00555 7.09607 8.97545C7.289 9.94536 7.7652 10.8363 8.46447 11.5355C9.16373 12.2348 10.0546 12.711 11.0245 12.9039C11.9945 13.0969 12.9998 12.9978 13.9134 12.6194C14.827 12.241 15.6079 11.6001 16.1573 10.7779C16.7068 9.95561 17 8.98891 17 8C17 6.67392 16.4732 5.40215 15.5355 4.46447C14.5979 3.52678 13.3261 3 12 3ZM12 11C11.4067 11 10.8266 10.8241 10.3333 10.4944C9.83994 10.1648 9.45542 9.69623 9.22836 9.14805C9.0013 8.59987 8.94189 7.99667 9.05764 7.41473C9.1734 6.83279 9.45912 6.29824 9.87868 5.87868C10.2982 5.45912 10.8328 5.1734 11.4147 5.05764C11.9967 4.94189 12.5999 5.0013 13.1481 5.22836C13.6962 5.45542 14.1648 5.83994 14.4944 6.33329C14.8241 6.82664 15 7.40666 15 8C15 8.79565 14.6839 9.55871 14.1213 10.1213C13.5587 10.6839 12.7956 11 12 11ZM21 22V21C21 19.1435 20.2625 17.363 18.9497 16.0503C17.637 14.7375 15.8565 14 14 14H10C8.14348 14 6.36301 14.7375 5.05025 16.0503C3.7375 17.363 3 19.1435 3 21V22H5V21C5 19.6739 5.52678 18.4021 6.46447 17.4645C7.40215 16.5268 8.67392 16 10 16H14C15.3261 16 16.5979 16.5268 17.5355 17.4645C18.4732 18.4021 19 19.6739 19 21V22H21Z" fill="#FDFDFD"/>
</svg>
