<svg width="100" height="100" viewBox="0 0 100 100" fill="none" xmlns="http://www.w3.org/2000/svg">
<circle cx="50" cy="50" r="49" fill="white" stroke="black" stroke-width="2"/>
<path d="M49.8214 18.5713C46.2307 18.5713 42.7207 19.5488 39.7351 21.3801C36.7496 23.2115 34.4227 25.8145 33.0486 28.8599C31.6745 31.9053 31.315 35.2564 32.0155 38.4895C32.716 41.7225 34.445 44.6922 36.984 47.0231C39.523 49.3539 42.7579 50.9413 46.2796 51.5844C49.8013 52.2275 53.4516 51.8974 56.7689 50.6359C60.0863 49.3745 62.9217 47.2383 64.9165 44.4975C66.9114 41.7566 67.9762 38.5343 67.9762 35.238C67.9762 30.8177 66.0634 26.5784 62.6587 23.4528C59.2541 20.3272 54.6363 18.5713 49.8214 18.5713ZM49.8214 45.238C47.667 45.238 45.561 44.6515 43.7696 43.5527C41.9783 42.4538 40.5822 40.892 39.7577 39.0648C38.9332 37.2375 38.7175 35.2269 39.1378 33.2871C39.5581 31.3472 40.5956 29.5654 42.119 28.1669C43.6424 26.7684 45.5833 25.816 47.6963 25.4301C49.8093 25.0443 51.9995 25.2423 53.9899 25.9992C55.9803 26.756 57.6815 28.0378 58.8785 29.6823C60.0754 31.3267 60.7142 33.2601 60.7142 35.238C60.7142 37.8901 59.5666 40.4337 57.5238 42.309C55.481 44.1844 52.7104 45.238 49.8214 45.238ZM82.5 81.9046V78.5713C82.5 72.3829 79.8221 66.448 75.0556 62.0721C70.289 57.6963 63.8242 55.238 57.0833 55.238H42.5595C35.8186 55.238 29.3537 57.6963 24.5872 62.0721C19.8206 66.448 17.1428 72.3829 17.1428 78.5713V81.9046H24.4047V78.5713C24.4047 74.151 26.3175 69.9118 29.7221 66.7862C33.1268 63.6606 37.7445 61.9046 42.5595 61.9046H57.0833C61.8982 61.9046 66.516 63.6606 69.9207 66.7862C73.3253 69.9118 75.2381 74.151 75.2381 78.5713V81.9046H82.5Z" fill="black"/>
</svg>
