<svg width="37" height="37" viewBox="0 0 37 37" fill="none" xmlns="http://www.w3.org/2000/svg">
<path d="M18.4789 19.0256C14.1237 19.0256 10.5039 15.4089 10.5039 11.1292C10.5039 6.70154 14.1237 3.08325 18.4804 3.08325C22.9852 3.08325 26.4555 6.7 26.4555 11.1292C26.4477 13.2306 25.6059 15.2429 24.1151 16.7239C22.6243 18.2049 20.6065 19.0333 18.5051 19.0272L18.4789 19.0256ZM18.4789 7.73446C16.6351 7.73446 15.2321 9.28383 15.2321 11.1308C15.2321 12.9746 16.6351 14.3775 18.4804 14.3775C20.3998 14.3775 21.7287 12.9746 21.7287 11.1308C21.7303 9.28229 20.3998 7.73446 18.4789 7.73446ZM21.6547 25.5962L26.161 29.9514C27.0475 30.9088 27.0475 32.3117 26.161 33.1982C25.2021 34.1555 23.7236 34.1555 22.9852 33.1982L18.4804 28.769L14.1237 33.1982C13.6812 33.6406 13.0892 33.8611 12.4232 33.8611C11.9068 33.8611 11.3163 33.6391 10.7983 33.1982C9.91186 32.3117 9.91186 30.9088 10.7983 29.9499L15.3771 25.5947C13.7235 25.105 12.1373 24.4116 10.6549 23.5304C9.54648 22.9399 9.32602 21.4645 9.91648 20.3561C10.6549 19.2492 11.9839 18.9547 13.1663 19.6932C14.7675 20.6703 16.607 21.1873 18.4827 21.1873C20.3585 21.1873 22.198 20.6703 23.7992 19.6932C24.9816 18.9547 26.383 19.2492 27.0475 20.3561C27.7135 21.4645 27.4159 22.9384 26.3815 23.5304C24.9801 24.4168 23.3552 25.0813 21.6563 25.5978L21.6547 25.5962Z" fill="black"/>
</svg>
