<svg width="37" height="37" viewBox="0 0 37 37" fill="none" xmlns="http://www.w3.org/2000/svg">
<path d="M33.2892 11.1046C33.1136 10.453 32.7705 9.8589 32.2939 9.38123C31.8173 8.90357 31.2239 8.55905 30.5728 8.38197C28.1586 7.71906 18.5 7.70826 18.5 7.70826C18.5 7.70826 8.84302 7.69747 6.42723 8.3311C5.77653 8.51632 5.18437 8.86571 4.7076 9.34572C4.23083 9.82573 3.88546 10.4202 3.70465 11.0722C3.06794 13.4864 3.06177 18.4938 3.06177 18.4938C3.06177 18.4938 3.0556 23.5258 3.68769 25.9153C4.04227 27.2366 5.0829 28.2803 6.40565 28.6364C8.84456 29.2993 18.4769 29.3101 18.4769 29.3101C18.4769 29.3101 28.1354 29.3209 30.5497 28.6888C31.201 28.512 31.795 28.1683 32.2727 27.6916C32.7505 27.2149 33.0956 26.6218 33.2738 25.9708C33.9121 23.5581 33.9167 18.5523 33.9167 18.5523C33.9167 18.5523 33.9475 13.5188 33.2892 11.1046ZM15.4105 23.1326L15.4182 13.8826L23.4457 18.5153L15.4105 23.1326Z" fill="black"/>
</svg>
