<svg width="37" height="37" viewBox="0 0 37 37" fill="none" xmlns="http://www.w3.org/2000/svg">
<path d="M18.7561 4.625C19.9833 4.625 24.1443 4.96879 26.1083 9.36254C26.7651 10.841 26.6078 13.3539 26.4783 15.372L26.4753 15.4444C26.4583 15.6695 26.4475 15.873 26.4383 16.0765C26.5907 16.1577 26.7622 16.196 26.9347 16.1875C27.3062 16.1675 27.7518 16.0395 28.2158 15.816C28.3944 15.7275 28.5916 15.6831 28.7908 15.6865C29.0159 15.6865 29.2364 15.7219 29.4214 15.7975C29.9779 15.9825 30.331 16.391 30.331 16.8365C30.351 17.3931 29.8484 17.8772 28.8278 18.2842C28.7184 18.3196 28.5673 18.3782 28.4023 18.4322C27.8427 18.6002 26.9886 18.8777 26.7481 19.4358C26.6371 19.7148 26.6726 20.0848 26.8992 20.5103L26.9177 20.5304C26.9917 20.6984 28.8109 24.8393 32.8593 25.5084C33.0078 25.5323 33.1424 25.6096 33.2381 25.7256C33.3337 25.8417 33.3838 25.9886 33.3788 26.139C33.3788 26.2315 33.3588 26.3224 33.3233 26.418C33.0258 27.1225 31.7462 27.6436 29.4229 27.992C29.3505 28.1046 29.2749 28.4576 29.2194 28.6997C29.1855 28.9217 29.1269 29.1452 29.0545 29.3842C28.9604 29.7203 28.7199 29.8852 28.3669 29.8852H28.3299C28.1051 29.8748 27.8817 29.8444 27.6623 29.7943C27.1436 29.6823 26.6144 29.6265 26.0837 29.6278C25.7137 29.6278 25.3437 29.6463 24.9552 29.7203C24.2106 29.8498 23.5615 30.2953 22.8184 30.8148C21.7593 31.5564 20.5537 32.412 18.7346 32.412C18.6606 32.412 18.5866 32.3935 18.5095 32.3935H18.326C16.5053 32.3935 15.3182 31.5564 14.2606 30.7963C13.5191 30.2753 12.8886 29.8313 12.1439 29.7002C11.7636 29.6434 11.3799 29.6125 10.9954 29.6077C10.3248 29.6077 9.80676 29.7187 9.41826 29.7927C9.15618 29.8467 8.93418 29.8837 8.74764 29.8837C8.58506 29.896 8.42334 29.8507 8.29084 29.7557C8.15833 29.6607 8.06353 29.5221 8.02305 29.3641C7.94905 29.1267 7.9136 28.8816 7.8581 28.6611C7.79951 28.436 7.72706 28.0506 7.65305 27.955C5.27426 27.6791 3.99468 27.158 3.69868 26.435C3.6578 26.3474 3.63474 26.2525 3.63085 26.1559C3.62492 26.0054 3.6746 25.8579 3.77041 25.7416C3.86623 25.6253 4.00148 25.5484 4.15039 25.5254C8.19726 24.8563 10.0164 20.7169 10.092 20.5427L10.112 20.5073C10.3356 20.0802 10.3895 19.7056 10.26 19.4296C10.0195 18.8916 9.16389 18.6141 8.61043 18.4275C8.46316 18.3903 8.31928 18.3408 8.18031 18.2795C6.80822 17.74 6.62168 17.1264 6.69722 16.7009C6.80822 16.1089 7.53126 15.7188 8.14485 15.7188C8.32522 15.7188 8.47939 15.7543 8.61968 15.8113C9.13922 16.0503 9.59864 16.1829 9.98868 16.1829C10.1885 16.1902 10.3868 16.145 10.5637 16.0518L10.5005 15.3458C10.3772 13.3308 10.2199 10.821 10.8813 9.35021C12.7868 4.97804 16.9385 4.64196 18.1641 4.64196L18.6806 4.625H18.7561Z" fill="black"/>
</svg>
