<svg width="37" height="37" viewBox="0 0 37 37" fill="none" xmlns="http://www.w3.org/2000/svg">
<path d="M33.2678 10.568C33.4836 9.85115 33.2678 9.32544 32.2472 9.32544H28.8663C28.0061 9.32544 27.613 9.78023 27.3971 10.2797C27.3971 10.2797 25.6782 14.4715 23.2423 17.1895C22.4561 17.9804 22.0969 18.2301 21.6683 18.2301C21.454 18.2301 21.1426 17.9804 21.1426 17.2635V10.568C21.1426 9.70777 20.8944 9.32544 20.1775 9.32544H14.8649C14.3284 9.32544 14.0047 9.72319 14.0047 10.1024C14.0047 10.9164 15.2226 11.1045 15.3475 13.3985V18.375C15.3475 19.465 15.1517 19.6639 14.72 19.6639C13.5745 19.6639 10.7872 15.4566 9.133 10.6405C8.81079 9.70469 8.4855 9.32698 7.62216 9.32698H4.24283C3.2762 9.32698 3.0835 9.78177 3.0835 10.2813C3.0835 11.1785 4.22895 15.6185 8.4192 21.4907C11.2127 25.5006 15.1455 27.6744 18.7283 27.6744C20.8759 27.6744 21.141 27.1918 21.141 26.3593V23.3284C21.141 22.3633 21.3461 22.1691 22.026 22.1691C22.5255 22.1691 23.3857 22.4219 25.3914 24.3536C27.6823 26.6445 28.0616 27.6728 29.3489 27.6728H32.7282C33.6933 27.6728 34.1758 27.1903 33.8983 26.2375C33.5946 25.2894 32.5 23.9096 31.0478 22.277C30.2585 21.3458 29.0791 20.3437 28.7199 19.8427C28.2188 19.1967 28.3637 18.9115 28.7199 18.338C28.7214 18.3396 32.8392 12.5398 33.2678 10.568Z" fill="black"/>
</svg>
