<svg width="37" height="37" viewBox="0 0 37 37" fill="none" xmlns="http://www.w3.org/2000/svg">
<path d="M33.2677 10.568C33.4835 9.85115 33.2677 9.32544 32.2471 9.32544H28.8662C28.006 9.32544 27.6128 9.78023 27.397 10.2797C27.397 10.2797 25.678 14.4715 23.2422 17.1895C22.456 17.9804 22.0968 18.2301 21.6682 18.2301C21.4539 18.2301 21.1425 17.9804 21.1425 17.2635V10.568C21.1425 9.70777 20.8943 9.32544 20.1774 9.32544H14.8648C14.3283 9.32544 14.0045 9.72319 14.0045 10.1024C14.0045 10.9164 15.2225 11.1045 15.3473 13.3985V18.375C15.3473 19.465 15.1515 19.6639 14.7199 19.6639C13.5744 19.6639 10.7871 15.4566 9.13287 10.6405C8.81067 9.70469 8.48537 9.32698 7.62204 9.32698H4.24271C3.27608 9.32698 3.08337 9.78177 3.08337 10.2813C3.08337 11.1785 4.22883 15.6185 8.41908 21.4907C11.2126 25.5006 15.1454 27.6744 18.7282 27.6744C20.8757 27.6744 21.1409 27.1918 21.1409 26.3593V23.3284C21.1409 22.3633 21.346 22.1691 22.0258 22.1691C22.5253 22.1691 23.3856 22.4219 25.3913 24.3536C27.6822 26.6445 28.0615 27.6728 29.3488 27.6728H32.7281C33.6932 27.6728 34.1757 27.1903 33.8982 26.2375C33.5945 25.2894 32.4999 23.9096 31.0477 22.277C30.2583 21.3458 29.079 20.3437 28.7197 19.8427C28.2187 19.1967 28.3636 18.9115 28.7197 18.338C28.7213 18.3396 32.8391 12.5398 33.2677 10.568Z" fill="#A1443B"/>
</svg>
