<svg width="37" height="37" viewBox="0 0 37 37" fill="none" xmlns="http://www.w3.org/2000/svg">
<path d="M18.4784 19.0256C14.1232 19.0256 10.5034 15.4089 10.5034 11.1292C10.5034 6.70154 14.1232 3.08325 18.48 3.08325C22.9847 3.08325 26.455 6.7 26.455 11.1292C26.4472 13.2306 25.6054 15.2429 24.1146 16.7239C22.6238 18.2049 20.606 19.0333 18.5046 19.0272L18.4784 19.0256ZM18.4784 7.73446C16.6346 7.73446 15.2317 9.28383 15.2317 11.1308C15.2317 12.9746 16.6346 14.3775 18.48 14.3775C20.3993 14.3775 21.7282 12.9746 21.7282 11.1308C21.7298 9.28229 20.3993 7.73446 18.4784 7.73446ZM21.6542 25.5962L26.1605 29.9514C27.047 30.9088 27.047 32.3117 26.1605 33.1982C25.2016 34.1555 23.7232 34.1555 22.9847 33.1982L18.48 28.769L14.1232 33.1982C13.6807 33.6406 13.0887 33.8611 12.4227 33.8611C11.9063 33.8611 11.3158 33.6391 10.7978 33.1982C9.91137 32.3117 9.91137 30.9088 10.7978 29.9499L15.3766 25.5947C13.723 25.105 12.1368 24.4116 10.6545 23.5304C9.54599 22.9399 9.32553 21.4645 9.91599 20.3561C10.6545 19.2492 11.9834 18.9547 13.1658 19.6932C14.767 20.6703 16.6065 21.1873 18.4823 21.1873C20.358 21.1873 22.1975 20.6703 23.7987 19.6932C24.9812 18.9547 26.3825 19.2492 27.047 20.3561C27.713 21.4645 27.4154 22.9384 26.381 23.5304C24.9796 24.4168 23.3547 25.0813 21.6558 25.5978L21.6542 25.5962Z" fill="#A1443B"/>
</svg>
