<svg width="37" height="37" viewBox="0 0 37 37" fill="none" xmlns="http://www.w3.org/2000/svg">
<path d="M18.7559 4.625C19.9831 4.625 24.144 4.96879 26.1081 9.36254C26.7649 10.841 26.6076 13.3539 26.4781 15.372L26.475 15.4444C26.4581 15.6695 26.4473 15.873 26.438 16.0765C26.5904 16.1577 26.762 16.196 26.9344 16.1875C27.306 16.1675 27.7515 16.0395 28.2156 15.816C28.3942 15.7275 28.5913 15.6831 28.7906 15.6865C29.0157 15.6865 29.2361 15.7219 29.4211 15.7975C29.9777 15.9825 30.3307 16.391 30.3307 16.8365C30.3508 17.3931 29.8482 17.8772 28.8276 18.2842C28.7181 18.3196 28.5671 18.3782 28.4021 18.4322C27.8425 18.6002 26.9884 18.8777 26.7479 19.4358C26.6369 19.7148 26.6724 20.0848 26.899 20.5103L26.9175 20.5304C26.9915 20.6984 28.8106 24.8393 32.8591 25.5084C33.0075 25.5323 33.1422 25.6096 33.2378 25.7256C33.3335 25.8417 33.3835 25.9886 33.3786 26.139C33.3786 26.2315 33.3586 26.3224 33.3231 26.418C33.0256 27.1225 31.746 27.6436 29.4227 27.992C29.3502 28.1046 29.2747 28.4576 29.2192 28.6997C29.1853 28.9217 29.1267 29.1452 29.0542 29.3842C28.9602 29.7203 28.7197 29.8852 28.3666 29.8852H28.3296C28.1049 29.8748 27.8815 29.8444 27.6621 29.7943C27.1434 29.6823 26.6141 29.6265 26.0834 29.6278C25.7134 29.6278 25.3434 29.6463 24.9549 29.7203C24.2103 29.8498 23.5613 30.2953 22.8182 30.8148C21.7591 31.5564 20.5535 32.412 18.7343 32.412C18.6603 32.412 18.5863 32.3935 18.5092 32.3935H18.3258C16.5051 32.3935 15.318 31.5564 14.2604 30.7963C13.5189 30.2753 12.8883 29.8313 12.1437 29.7002C11.7634 29.6434 11.3796 29.6125 10.9951 29.6077C10.3245 29.6077 9.80652 29.7187 9.41802 29.7927C9.15594 29.8467 8.93394 29.8837 8.74739 29.8837C8.58482 29.896 8.42309 29.8507 8.29059 29.7557C8.15809 29.6607 8.06328 29.5221 8.02281 29.3641C7.94881 29.1267 7.91335 28.8816 7.85785 28.6611C7.79927 28.436 7.72681 28.0506 7.65281 27.955C5.27402 27.6791 3.99444 27.158 3.69844 26.435C3.65755 26.3474 3.63449 26.2525 3.6306 26.1559C3.62468 26.0054 3.67435 25.8579 3.77017 25.7416C3.86598 25.6253 4.00123 25.5484 4.15014 25.5254C8.19702 24.8563 10.0162 20.7169 10.0917 20.5427L10.1118 20.5073C10.3353 20.0802 10.3893 19.7056 10.2598 19.4296C10.0193 18.8916 9.16364 18.6141 8.61019 18.4275C8.46292 18.3903 8.31904 18.3408 8.18006 18.2795C6.80798 17.74 6.62144 17.1264 6.69698 16.7009C6.80798 16.1089 7.53102 15.7188 8.1446 15.7188C8.32498 15.7188 8.47914 15.7543 8.61944 15.8113C9.13898 16.0503 9.59839 16.1829 9.98844 16.1829C10.1883 16.1902 10.3865 16.145 10.5635 16.0518L10.5003 15.3458C10.3769 13.3308 10.2197 10.821 10.8811 9.35021C12.7866 4.97804 16.9383 4.64196 18.1639 4.64196L18.6804 4.625H18.7559Z" fill="#A1443B"/>
</svg>
