<svg width="190" height="41" viewBox="0 0 190 41" fill="none" xmlns="http://www.w3.org/2000/svg">
<rect y="3" width="92" height="38" fill="#E4E4E4"/>
<rect x="21" y="2" width="49" height="39" fill="#E4E4E4"/>
<path d="M21 7L43 41H0L21 7Z" fill="#A1443B"/>
<path d="M70 7L92 41H49L70 7Z" fill="#A1443B"/>
<path d="M46 36L24 2H67L46 36Z" fill="black"/>
<line x1="19.7138" y1="6.22826" x2="22.7138" y2="1.22826" stroke="#E4E4E4" stroke-width="3"/>
<line x1="68.2863" y1="1.22834" x2="71.286" y2="6.22854" stroke="#E4E4E4" stroke-width="3"/>
<path d="M95.1797 5.45312V41H90.4678V5.45312H95.1797ZM115.368 41H107.946L107.995 37.167H115.368C117.907 37.167 120.023 36.638 121.716 35.5801C123.409 34.5059 124.678 33.0085 125.524 31.0879C126.387 29.151 126.818 26.8887 126.818 24.3008V22.1279C126.818 20.0934 126.574 18.2868 126.086 16.708C125.598 15.113 124.882 13.7702 123.938 12.6797C122.993 11.5729 121.838 10.7347 120.471 10.165C119.12 9.59538 117.565 9.31055 115.808 9.31055H107.8V5.45312H115.808C118.135 5.45312 120.259 5.84375 122.18 6.625C124.1 7.38997 125.752 8.50488 127.136 9.96973C128.535 11.4183 129.61 13.1761 130.358 15.2432C131.107 17.2939 131.481 19.6051 131.481 22.1768V24.3008C131.481 26.8724 131.107 29.1917 130.358 31.2588C129.61 33.3096 128.527 35.0592 127.111 36.5078C125.712 37.9564 124.019 39.0713 122.033 39.8525C120.064 40.6175 117.842 41 115.368 41ZM110.461 5.45312V41H105.749V5.45312H110.461Z" fill="#A1443B"/>
<path d="M162.119 37.167V41H144.346V37.167H162.119ZM145.273 5.45312V41H140.562V5.45312H145.273ZM165.291 5.45312L174.52 23.2998L183.772 5.45312H189.119L176.863 27.7188V41H172.151V27.7188L159.896 5.45312H165.291Z" fill="black"/>
</svg>
